<svg xmlns="http://www.w3.org/2000/svg" viewBox="0 0 78.59 56.21"><defs><style>.cls-1{fill:none;}.cls-2{fill:#382b51;}</style></defs><title>email</title><g id="Camada_2" data-name="Camada 2"><g id="Camada_1-2" data-name="Camada 1"><path class="cls-1" d="M51.79,17.52l18.63-13A10.37,10.37,0,0,0,65.09,3H13.5A10.4,10.4,0,0,0,8.17,4.47L27.08,17.72a17.86,17.86,0,0,1,12.15-4.51C44.27,13.21,48.69,14.65,51.79,17.52Z"/><path class="cls-2" d="M65.09,0H13.5A13.52,13.52,0,0,0,0,13.5V42.71a13.51,13.51,0,0,0,13.5,13.5H65.09a13.51,13.51,0,0,0,13.5-13.5V13.5A13.52,13.52,0,0,0,65.09,0Zm10.5,42.71a10.51,10.51,0,0,1-10.5,10.5H13.5A10.51,10.51,0,0,1,3,42.71V13.5A10.44,10.44,0,0,1,5.75,6.44L25.08,20a14.38,14.38,0,0,1,2-2.26L8.17,4.47A10.4,10.4,0,0,1,13.5,3H65.09a10.37,10.37,0,0,1,5.33,1.47L51.79,17.52a13,13,0,0,1,2,2.28L72.84,6.44a10.46,10.46,0,0,1,2.75,7.06Z"/><path class="cls-2" d="M39.23,17.27c3.74,0,6.9.78,9.12,2.66l3.44-2.41c-3.1-2.87-7.52-4.31-12.56-4.31a17.86,17.86,0,0,0-12.15,4.51l3.73,2.61A12.94,12.94,0,0,1,39.23,17.27Z"/><path class="cls-2" d="M51.86,29.26c0,3-.85,6.17-2.27,6.53-.41.13-.81-.16-.81-.81V23.3h0a16.24,16.24,0,0,1-5.19,2.41,5.86,5.86,0,0,1,1.12,3.62c0,3.21-1.91,5.89-5.61,5.89a5.43,5.43,0,0,1-5.69-5.69,6,6,0,0,1,1.39-3.89,16.32,16.32,0,0,1-4.31-1.94,10.08,10.08,0,0,0-1.83,5.87c0,5.89,4.55,10,10.4,10,1.75,0,4.95-1.1,5.85-3.57,0,3.08,2.52,3.86,4.1,3.86,4.75,0,7.43-4.15,7.43-10.6a16.43,16.43,0,0,0-2.65-9.46l-3.49,2.45A13.85,13.85,0,0,1,51.86,29.26Z"/><path class="cls-2" d="M39,19.47a10.63,10.63,0,0,0-6.37,2.05,13.54,13.54,0,0,0,11.8.75A7,7,0,0,0,39,19.47Z"/><path class="cls-2" d="M44.7,22.15A13.63,13.63,0,0,0,47,20.86l.06,0L45,20.52Z"/><path class="cls-2" d="M38.91,45.54a14.78,14.78,0,0,0,7.76-2L44.8,40A10.67,10.67,0,0,1,39,41.4c-5.93,0-12.26-3-12.26-11.82a12.24,12.24,0,0,1,2-7L25.08,20a16.14,16.14,0,0,0-2.9,9.6C22.18,40.79,30.62,45.54,38.91,45.54Z"/><path class="cls-2" d="M39.11,23.77a5.31,5.31,0,0,1,4.45,1.95,16.24,16.24,0,0,0,5.19-2.41h0V21.05l-1.69-.23-.06,0a13.63,13.63,0,0,1-2.33,1.29l-.07.45a2,2,0,0,0-.21-.33,13.54,13.54,0,0,1-11.8-.75,10,10,0,0,0-2.16,2.19,16.32,16.32,0,0,0,4.31,1.94A5.52,5.52,0,0,1,39.11,23.77Z"/><path class="cls-2" d="M30.81,20.33l-3.73-2.61a14.38,14.38,0,0,0-2,2.26l3.72,2.61A11.45,11.45,0,0,1,30.81,20.33Z"/><path class="cls-2" d="M50.27,22.25l3.49-2.45a13,13,0,0,0-2-2.28l-3.44,2.41A8.88,8.88,0,0,1,50.27,22.25Z"/></g></g></svg>