<svg xmlns="http://www.w3.org/2000/svg" viewBox="0 0 56.21 56.21"><defs><style>.cls-1{fill:#382b51;}</style></defs><title>instagram</title><g id="Camada_2" data-name="Camada 2"><g id="Camada_1-2" data-name="Camada 1"><path class="cls-1" d="M42.71,56.21H13.5A13.51,13.51,0,0,1,0,42.71V13.5A13.52,13.52,0,0,1,13.5,0H42.71a13.51,13.51,0,0,1,13.5,13.5V42.71A13.51,13.51,0,0,1,42.71,56.21ZM13.5,3A10.51,10.51,0,0,0,3,13.5V42.71a10.51,10.51,0,0,0,10.5,10.5H42.71a10.51,10.51,0,0,0,10.5-10.5V13.5A10.51,10.51,0,0,0,42.71,3Z"/><path class="cls-1" d="M28.11,42.44A14.34,14.34,0,1,1,42.44,28.11,14.35,14.35,0,0,1,28.11,42.44Zm0-25.67A11.34,11.34,0,1,0,39.44,28.11,11.36,11.36,0,0,0,28.11,16.77Z"/><path class="cls-1" d="M43.36,17.17A5.63,5.63,0,1,1,49,11.54,5.63,5.63,0,0,1,43.36,17.17Zm0-8.26A2.63,2.63,0,1,0,46,11.54,2.63,2.63,0,0,0,43.36,8.91Z"/></g></g></svg>