<svg width="43" height="58" viewBox="0 0 43 58" fill="none" xmlns="http://www.w3.org/2000/svg">
<g clip-path="url(#clip0)">
<path d="M42.1959 23.5029C41.8763 23.1095 41.4782 22.7896 41.0279 22.5642C40.2585 13.5115 31.6208 0 21.1925 0C10.6103 0 1.86767 13.9169 1.32912 22.9767C1.13569 23.1319 0.95976 23.3084 0.804555 23.5029C0.475692 23.9067 0.23869 24.3793 0.11052 24.8871C-0.0176503 25.3948 -0.0338175 25.9251 0.0631758 26.4399L5.49763 55.1128C5.65075 55.9262 6.07832 56.6597 6.70654 57.1868C7.33476 57.7139 8.12424 58.0015 8.93875 58H34.0617C34.8762 58.0015 35.6657 57.7139 36.2939 57.1868C36.9221 56.6597 37.3497 55.9262 37.5028 55.1128L42.9303 26.447C43.0293 25.9316 43.0148 25.4003 42.8878 24.8912C42.7609 24.3822 42.5246 23.9081 42.1959 23.5029ZM22.0528 31.6667H21.6821C21.3111 31.6667 20.9553 31.8166 20.693 32.0833C20.4306 32.35 20.2832 32.7118 20.2832 33.089V37.05C17.1718 36.7527 14.2663 35.3383 12.0874 33.0604C9.90857 30.7825 8.59892 27.79 8.3932 24.6194H34.6003C34.4101 27.6599 33.2038 30.5431 31.1812 32.791C29.1586 35.0388 26.4413 36.5165 23.4796 36.9789V33.1175C23.4834 32.9259 23.4491 32.7355 23.3787 32.5578C23.3084 32.38 23.2034 32.2185 23.0702 32.083C22.9369 31.9475 22.7781 31.8408 22.6033 31.7693C22.4284 31.6978 22.2412 31.6629 22.0528 31.6667ZM21.1925 2.1334C30.3129 2.1334 37.7686 14.6138 38.8597 22.0451H3.53227C4.60238 14.6138 12.0791 2.1334 21.1925 2.1334ZM40.6012 25.9848L35.1738 54.6577C35.1222 54.9194 34.9835 55.155 34.7808 55.3247C34.5782 55.4945 34.3242 55.5879 34.0617 55.5893H8.93875C8.67623 55.5879 8.42222 55.4945 8.21961 55.3247C8.017 55.155 7.87821 54.9194 7.82668 54.6577L2.39223 25.9848C2.36277 25.8192 2.36911 25.6491 2.41082 25.4863C2.45253 25.3235 2.52861 25.1718 2.63376 25.0419C2.73892 24.912 2.87063 24.8069 3.01975 24.7339C3.16887 24.661 3.33183 24.6219 3.4973 24.6194H6.29496C6.50331 28.3589 8.0337 31.8958 10.6042 34.5786C13.1747 37.2614 16.6121 38.9094 20.2832 39.219V43.308C20.2832 43.6852 20.4306 44.047 20.693 44.3137C20.9553 44.5804 21.3111 44.7303 21.6821 44.7303H22.0598C22.4308 44.7303 22.7866 44.5804 23.0489 44.3137C23.3112 44.047 23.4586 43.6852 23.4586 43.308V39.1123C26.9819 38.642 30.2337 36.9375 32.6541 34.2922C35.0745 31.6469 36.5122 28.2263 36.7195 24.6194H39.5171C39.6836 24.6196 39.848 24.6571 39.9986 24.7292C40.1491 24.8014 40.2823 24.9063 40.3884 25.0367C40.4946 25.167 40.5712 25.3196 40.6128 25.4834C40.6544 25.6473 40.66 25.8185 40.6292 25.9848H40.6012Z" fill="#382B51"/>
</g>
<defs>
<clipPath id="clip0">
<rect width="43" height="58" fill="white"/>
</clipPath>
</defs>
</svg>
