<svg width="57" height="58" viewBox="0 0 57 58" fill="none" xmlns="http://www.w3.org/2000/svg">
<g clip-path="url(#clip0)">
<path d="M55.7229 31.755C54.772 30.6217 53.6257 29.6659 52.3378 28.9322C51.0794 28.156 49.8327 27.3539 48.5979 26.5259C46.0148 24.811 43.4316 23.0821 40.7562 21.5085C40.3729 21.2332 39.9826 20.9651 39.5781 20.7181C40.5034 19.0837 41.0445 17.2622 41.1607 15.3902C42.3459 15.0394 43.4317 14.4168 44.3307 13.5725C45.2298 12.7282 45.9169 11.6857 46.3367 10.5291C46.7566 9.37252 46.8975 8.13404 46.7481 6.91339C46.5987 5.69273 46.1632 4.52402 45.4765 3.50132C44.7899 2.47863 43.8714 1.63053 42.795 1.0253C41.7185 0.420078 40.5142 0.0746359 39.279 0.0167862C38.0438 -0.0410635 36.8122 0.190296 35.6833 0.692238C34.5544 1.19418 33.5598 1.95268 32.7796 2.90668C30.1058 1.9894 27.2 1.9894 24.5262 2.90668C23.7476 1.95138 22.7543 1.19121 21.6263 0.687377C20.4983 0.183542 19.267 -0.0498859 18.0317 0.00588645C16.7964 0.0616588 15.5915 0.405073 14.514 1.00848C13.4366 1.61189 12.5166 2.45844 11.8283 3.47997C11.1399 4.5015 10.7024 5.66948 10.5509 6.88987C10.3994 8.11026 10.5382 9.34898 10.9561 10.5063C11.374 11.6636 12.0593 12.7072 12.9569 13.553C13.8545 14.3988 14.9392 15.0233 16.1238 15.3761C16.227 17.2628 16.7661 19.1004 17.6993 20.7463C17.4296 20.9086 17.167 21.085 16.9115 21.2615C16.7509 21.2762 16.5956 21.3269 16.4574 21.4097C13.7039 23.0116 11.0568 24.7969 8.40271 26.5541C7.16789 27.3797 5.92599 28.1842 4.66279 28.9322C3.3749 29.6659 2.22865 30.6217 1.2777 31.755C-0.375806 33.872 -0.553222 36.8218 1.51899 38.7624C3.34992 40.4772 5.77696 40.6113 8.09045 39.962C8.13052 40.7693 8.3081 41.5638 8.6156 42.312C7.04278 44.0296 6.1721 46.2696 6.17437 48.5925C6.17522 50.2356 6.60854 51.8499 7.43127 53.2749C8.25399 54.6998 9.43745 55.8858 10.864 56.715C12.2906 57.5441 13.9105 57.9876 15.5628 58.0012C17.2151 58.0148 18.8423 57.5981 20.2824 56.7926C22.1063 57.3642 24.9804 57.6535 28.8764 57.6535H29.2171C31.6583 57.6535 34.8447 57.6535 37.1227 56.9055C39.0593 57.9283 41.2932 58.2504 43.4422 57.8165C45.5912 57.3827 47.5219 56.2199 48.9041 54.5271C50.2863 52.8343 51.0341 50.7165 51.0197 48.536C51.0053 46.3555 50.2295 44.2477 48.825 42.5731C49.1593 41.7736 49.3166 40.912 49.2863 40.0467C51.4579 40.576 53.7501 40.3643 55.4816 38.7483C57.5539 36.8076 57.3835 33.872 55.7229 31.755ZM38.911 2.11632C40.2517 2.11313 41.5516 2.5743 42.5875 3.4206C43.6233 4.2669 44.3305 5.4455 44.5874 6.75392C44.8444 8.06234 44.6351 9.4189 43.9955 10.5905C43.3559 11.7622 42.326 12.6758 41.0826 13.1744C40.8532 11.2047 40.1497 9.31896 39.0317 7.67709C37.9447 6.08254 36.5021 4.75912 34.8163 3.80995C35.3523 3.2724 35.9902 2.84591 36.693 2.55519C37.3959 2.26448 38.1498 2.11531 38.911 2.11632ZM32.737 5.14369C34.5673 5.92667 36.1336 7.21481 37.2504 8.85558C38.4016 10.5402 39.0217 12.5278 39.0317 14.5645V14.7551C39.0146 16.8091 38.3821 18.8115 37.215 20.5064L36.5621 21.452L37.584 22.0307C38.1561 22.3512 38.7105 22.7022 39.2446 23.0821C39.3099 23.1411 39.3813 23.1931 39.4575 23.2374L39.5923 23.3221C41.9237 25.0281 43.8196 27.2547 45.1274 29.8225C46.4352 32.3904 47.1184 35.2277 47.1218 38.1061C47.1218 38.2684 47.1218 38.4801 47.1218 38.7271C47.1597 39.4729 47.1454 40.2203 47.0792 40.9641C45.7042 39.9552 44.0764 39.3424 42.3742 39.1928C42.3742 38.9176 42.3742 38.6495 42.3742 38.3743C42.3742 36.5764 42.0181 34.7962 41.3262 33.1352C40.6343 31.4743 39.6202 29.9651 38.3418 28.6938C37.0634 27.4225 35.5457 26.4141 33.8753 25.7261C32.205 25.0381 30.4147 24.684 28.6068 24.684C26.7988 24.684 25.0085 25.0381 23.3382 25.7261C21.6679 26.4141 20.1501 27.4225 18.8717 28.6938C17.5933 29.9651 16.5792 31.4743 15.8873 33.1352C15.1954 34.7962 14.8393 36.5764 14.8393 38.3743C14.8393 38.6424 14.8393 38.9106 14.8393 39.1787C13.2017 39.3031 11.6257 39.8531 10.2691 40.7736C10.1431 39.8903 10.1027 38.997 10.1485 38.1061C10.1511 34.8249 11.0362 31.6041 12.712 28.7775C14.3878 25.951 16.7933 23.6215 19.6792 22.0307L20.7011 21.4591L20.0412 20.5064C18.8832 18.8313 18.2532 16.8512 18.2315 14.8186V14.5998C18.24 12.8919 18.6736 11.2126 19.4936 9.71179C20.3137 8.21103 21.4946 6.93551 22.9311 5.99908C24.3675 5.06265 26.0148 4.49445 27.7259 4.34519C29.4369 4.19593 31.1585 4.47026 32.737 5.14369ZM12.6394 7.86057C12.6376 6.72501 12.9748 5.61447 13.6082 4.66959C14.2416 3.72472 15.1428 2.988 16.1975 2.55275C17.2523 2.1175 18.4132 2.00329 19.5332 2.22458C20.6533 2.44586 21.6822 2.9927 22.4895 3.79584L22.2411 3.93698L21.9998 4.09223L21.496 4.4239L21.2902 4.55798C21.0631 4.72028 20.8431 4.88965 20.6373 5.05901L20.5024 5.17898L20.0128 5.64473L19.807 5.84937C19.6792 5.9764 19.5515 6.10342 19.4308 6.2375L19.225 6.46332L18.8702 6.88673C18.8134 6.95729 18.7496 7.02786 18.6928 7.10549C18.5367 7.31014 18.3805 7.51478 18.2386 7.73354C18.2252 7.75134 18.2133 7.77022 18.2031 7.79C18.0541 8.0017 17.9193 8.22752 17.7844 8.45334L17.6567 8.69327C17.5644 8.85558 17.4793 9.01789 17.3941 9.18725L17.2664 9.46247C17.1883 9.62477 17.1173 9.78708 17.0464 9.95644L16.9399 10.2246C16.8619 10.4222 16.7909 10.6268 16.727 10.8315L16.6632 11.0079C16.5851 11.269 16.507 11.5301 16.4432 11.7983C16.4308 11.8744 16.4142 11.9498 16.3935 12.0241C16.3509 12.2217 16.3154 12.4193 16.2799 12.6169L16.2374 12.9133C16.2374 13.005 16.2019 13.1038 16.1948 13.1955C15.1368 12.7573 14.2338 12.0161 13.6007 11.066C12.9676 10.116 12.6329 9.00023 12.6394 7.86057ZM2.44155 36.5465C1.21384 34.486 3.27185 32.4183 4.86859 31.3457C6.89822 29.9908 8.98463 28.7135 11.0214 27.3586L11.1562 27.2739C9.17588 30.425 8.09412 34.0521 8.02658 37.7674C6.13179 38.4872 3.5983 38.4801 2.44155 36.5465ZM8.30335 48.5784C8.30335 47.1339 8.73413 45.7217 9.54121 44.5206C10.3483 43.3195 11.4954 42.3834 12.8375 41.8306C14.1797 41.2778 15.6565 41.1331 17.0813 41.415C18.5061 41.6968 19.8148 42.3924 20.842 43.4138C21.8693 44.4353 22.5688 45.7367 22.8522 47.1535C23.1356 48.5703 22.9902 50.0389 22.4342 51.3735C21.8783 52.7081 20.9369 53.8488 19.729 54.6513C18.5211 55.4539 17.101 55.8822 15.6483 55.8822C14.683 55.885 13.7266 55.698 12.8342 55.332C11.9418 54.9659 11.131 54.428 10.4484 53.7492C9.76578 53.0704 9.22486 52.2642 8.85673 51.3768C8.48861 50.4894 8.30054 49.5383 8.30335 48.5784ZM29.0397 55.5364H28.8764C26.7256 55.5749 24.5752 55.438 22.4469 55.1272C23.662 53.8853 24.5082 52.3336 24.8922 50.6435C25.2761 48.9534 25.1828 47.1907 24.6226 45.55C24.0623 43.9093 23.0569 42.4546 21.7174 41.3464C20.3779 40.2383 18.7565 39.5198 17.0322 39.2705C17.0322 38.9741 16.9967 38.6777 16.9967 38.3813C16.9967 35.3119 18.2229 32.3682 20.4055 30.1978C22.5882 28.0274 25.5484 26.8081 28.6351 26.8081C31.7219 26.8081 34.6821 28.0274 36.8648 30.1978C39.0474 32.3682 40.2736 35.3119 40.2736 38.3813C40.2736 38.6706 40.2736 38.96 40.2381 39.2493C38.4892 39.4877 36.8421 40.2077 35.483 41.3278C34.1238 42.448 33.1067 43.9237 32.5464 45.5883C31.9862 47.253 31.9052 49.0402 32.3126 50.7482C32.7199 52.4563 33.5995 54.017 34.8518 55.2542C32.9229 55.4769 30.9812 55.5712 29.0397 55.5364ZM41.5368 55.8822C39.8561 55.8912 38.2249 55.3173 36.924 54.2592C35.5762 53.1761 34.657 51.6541 34.3287 49.9622C34.0003 48.2704 34.2841 46.5175 35.1299 45.0136C35.9756 43.5097 37.3289 42.3515 38.9504 41.7439C40.5719 41.1362 42.3572 41.1182 43.9907 41.693C45.6243 42.2677 47.0009 43.3983 47.8772 44.8849C48.7535 46.3714 49.073 48.1181 48.7793 49.8163C48.4857 51.5145 47.5976 53.0547 46.2723 54.1648C44.947 55.2748 43.2696 55.8831 41.5368 55.8822ZM54.5591 36.5465C53.452 38.3884 51.1101 38.4872 49.2437 37.8662C49.2023 34.2365 48.1908 30.683 46.3128 27.5703C48.2431 28.8405 50.216 30.0613 52.132 31.3457C53.7288 32.4183 55.7939 34.486 54.5591 36.5465Z" fill="#382B51"/>
<path d="M23.2201 18.7146C23.6672 19.2298 24.2351 19.6273 24.8736 19.8719C25.496 20.0611 26.1584 20.0781 26.7897 19.9213C27.5205 19.7256 28.1786 19.3237 28.6845 18.764C29.3646 19.4283 30.2132 19.8966 31.14 20.1189C31.8428 20.2592 32.5726 20.1635 33.2148 19.8467C33.857 19.53 34.3753 19.0101 34.6883 18.3688C34.8182 18.1274 34.8524 17.8464 34.7841 17.5811C34.7158 17.3159 34.5499 17.0858 34.3192 16.9363C34.0784 16.8078 33.7973 16.7758 33.5335 16.8466C33.2697 16.9174 33.043 17.0858 32.8999 17.3173C32.8534 17.4564 32.7798 17.585 32.6833 17.6957C32.5867 17.8065 32.4692 17.8972 32.3374 17.9628C32.2056 18.0283 32.062 18.0674 31.915 18.0777C31.768 18.088 31.6204 18.0695 31.4806 18.023C30.684 17.7508 30.0167 17.1954 29.6071 16.4635C29.5352 16.3392 29.4357 16.233 29.3161 16.153C29.4272 16.1199 29.5342 16.075 29.6355 16.0189L29.7206 15.9624C29.8243 15.8991 29.9196 15.8232 30.0045 15.7366C30.0835 15.6563 30.1547 15.5689 30.2174 15.4755L30.2813 15.3908C30.3563 15.2584 30.4113 15.1158 30.4445 14.9674C30.5495 14.8044 30.6106 14.6173 30.6219 14.424C30.6172 14.1172 30.542 13.8154 30.4019 13.5419C30.3267 13.4114 30.2388 13.2884 30.1393 13.175C30.0976 13.1206 30.05 13.0709 29.9974 13.0268C29.7725 12.8222 29.5028 12.6724 29.2097 12.5893C28.9071 12.5116 28.5897 12.5116 28.2871 12.5893C28.0261 12.6463 27.7827 12.7649 27.5775 12.9351C27.4915 12.9938 27.4129 13.0625 27.3433 13.1397C27.2386 13.2548 27.1459 13.3801 27.0665 13.5137C26.9995 13.6457 26.9425 13.7825 26.8962 13.923C26.8962 14.0006 26.8962 14.0783 26.8607 14.1559C26.8252 14.2335 26.8607 14.3182 26.8607 14.3958C26.8572 14.431 26.8572 14.4665 26.8607 14.5017C26.8703 14.6178 26.8869 14.7333 26.9104 14.8475C26.9492 14.9928 27.0064 15.1327 27.0807 15.2638C27.1517 15.397 27.24 15.5204 27.3433 15.6308C27.385 15.6851 27.4326 15.7348 27.4852 15.7789C27.5975 15.88 27.7214 15.9677 27.8542 16.0401L28.06 16.1388C27.9342 16.2227 27.8317 16.3368 27.762 16.4705C27.6474 16.7845 27.4692 17.0717 27.2385 17.3145C27.0078 17.5573 26.7295 17.7504 26.4207 17.8819C25.711 18.1218 25.2711 17.7478 24.7814 17.2609C24.5875 17.055 24.3194 16.9341 24.0359 16.9249C23.7524 16.9156 23.4768 17.0187 23.2698 17.2115C23.0628 17.4043 22.9412 17.6709 22.9319 17.9528C22.9226 18.2347 23.0263 18.5087 23.2201 18.7146Z" fill="#382B51"/>
</g>
<defs>
<clipPath id="clip0">
<rect width="57" height="58" fill="white"/>
</clipPath>
</defs>
</svg>
