<svg width="65" height="49" viewBox="0 0 65 49" fill="none" xmlns="http://www.w3.org/2000/svg">
<g clip-path="url(#clip0)">
<path d="M65 41.0359C64.9981 41.3653 64.8672 41.6806 64.6357 41.9135C64.4042 42.1465 64.0908 42.2781 63.7634 42.28H40.3186C40.0342 44.1614 39.0891 45.878 37.6547 47.1184C36.2202 48.3588 34.3914 49.0408 32.5 49.0408C30.6086 49.0408 28.7798 48.3588 27.3453 47.1184C25.9109 45.878 24.9658 44.1614 24.6815 42.28H1.23659C0.908625 42.28 0.594094 42.149 0.362188 41.9156C0.130283 41.6823 0 41.3658 0 41.0359C0.00890198 33.3853 2.67997 25.9793 7.54961 20.1033C12.4192 14.2274 19.18 10.2524 26.6586 8.86832L28.4487 0.969296C28.5108 0.693761 28.6642 0.447673 28.8837 0.271508C29.1032 0.0953423 29.3758 -0.000409555 29.6566 1.31679e-06H35.3362C35.617 -0.000409555 35.8896 0.0953423 36.1091 0.271508C36.3286 0.447673 36.482 0.693761 36.5441 0.969296L38.3343 8.86832C45.8141 10.2509 52.5766 14.2253 57.4476 20.1013C62.3187 25.9774 64.9908 33.3842 65 41.0359ZM2.49475 39.7845H62.4981C62.1595 32.0074 58.8507 24.6619 53.2614 19.2792C47.672 13.8965 40.2335 10.892 32.4964 10.892C24.7593 10.892 17.3208 13.8965 11.7314 19.2792C6.14208 24.6619 2.83327 32.0074 2.49475 39.7845ZM37.795 42.2728H27.1978C27.478 43.4751 28.154 44.5467 29.1158 45.3138C30.0777 46.0808 31.269 46.4982 32.4964 46.4982C33.7238 46.4982 34.9151 46.0808 35.877 45.3138C36.8388 44.5467 37.5148 43.4751 37.795 42.2728ZM35.7173 8.49218L34.3513 2.48111H30.6415L29.2755 8.49218C31.4271 8.27807 33.5945 8.27807 35.746 8.49218H35.7173Z" fill="#382B51"/>
</g>
<defs>
<clipPath id="clip0">
<rect width="65" height="49" fill="white"/>
</clipPath>
</defs>
</svg>
