<svg width="45" height="60" viewBox="0 0 45 60" fill="none" xmlns="http://www.w3.org/2000/svg">
<g clip-path="url(#clip0)">
<path d="M41.9644 27.6321H27.1212C28.2075 21.8714 31.0325 16.5814 35.2162 12.4736C35.405 12.271 35.5078 12.0031 35.5029 11.7263C35.498 11.4495 35.3858 11.1854 35.19 10.9896C34.9942 10.7939 34.73 10.6817 34.453 10.6768C34.1761 10.6719 33.9081 10.7747 33.7055 10.9634C31.2017 13.4509 29.1326 16.3402 27.5844 19.5115C27.0117 18.0508 26.2265 16.6826 25.2542 15.4512C25.5912 12.8993 25.1768 10.3045 24.0619 7.98427C22.9469 5.66405 21.1797 3.71896 18.9763 2.38692C13.5392 -0.711733 6.51311 -0.569266 0.769643 1.56062C0.614867 1.60827 0.472656 1.68979 0.353343 1.79926C0.234029 1.90874 0.140611 2.0434 0.0798763 2.19348C0.0191415 2.34356 -0.0073841 2.50527 0.00222684 2.66688C0.0118378 2.82849 0.0573439 2.98593 0.135438 3.12775C2.47273 7.95026 4.51073 13.4851 9.72689 15.8572C14.1521 17.8588 19.1046 17.5169 23.8219 17.1038C25.0573 18.7393 25.8898 20.6428 26.2518 22.66C25.6767 24.2822 25.2405 25.9503 24.9478 27.6463H9.33496C8.52986 27.6463 7.75774 27.966 7.18845 28.5351C6.61916 29.1042 6.29933 29.8761 6.29933 30.6809V39.0793C6.29933 39.8841 6.61916 40.656 7.18845 41.2251C7.75774 41.7942 8.52986 42.1139 9.33496 42.1139H10.2257L14.8433 57.8209C15.0312 58.4485 15.4159 58.9991 15.9406 59.3916C16.4654 59.7841 17.1024 59.9976 17.7578 60.0006H33.5416C34.197 59.9976 34.834 59.7841 35.3588 59.3916C35.8835 58.9991 36.2682 58.4485 36.4561 57.8209L41.0737 42.1139H41.9644C42.7695 42.1139 43.5416 41.7942 44.1109 41.2251C44.6802 40.656 45 39.8841 45 39.0793V30.6666C45 29.8618 44.6802 29.09 44.1109 28.5209C43.5416 27.9518 42.7695 27.6321 41.9644 27.6321ZM10.8029 14.0122C6.41335 12.0248 4.47511 7.40176 2.52974 3.22036C7.32546 1.71733 12.8765 1.61048 17.3872 3.93269C19.4201 4.92903 21.0535 6.58697 22.019 8.6341C22.7124 10.0622 23.126 11.6096 23.2376 13.1931C21.3481 11.4086 19.1824 9.94121 16.8243 8.84781H16.753L15.7554 8.39191C15.6984 8.31355 15.6485 8.22807 15.5986 8.14972C15.5487 8.07136 15.4133 7.81492 15.3278 7.64396C15.2423 7.473 15.2352 7.45163 15.1924 7.35903V7.32341C15.1924 7.32341 15.1924 7.32341 15.1924 7.28067V7.23793C15.1212 7.05984 15.0499 6.88176 14.9858 6.70368C14.6809 5.8667 14.3116 5.05458 13.8813 4.27461C13.7333 4.04079 13.5004 3.87346 13.2315 3.80784C12.9626 3.74221 12.6787 3.78341 12.4396 3.92277C12.2005 4.06213 12.0248 4.28877 11.9494 4.55501C11.8741 4.82125 11.905 5.10632 12.0357 5.35024C12.1354 5.52832 12.2352 5.71353 12.3207 5.89874C12.3207 5.96285 12.3848 6.03408 12.4133 6.10531C12.4419 6.17655 12.4133 6.10531 12.4133 6.14093L12.4561 6.23354C12.5986 6.5897 12.7269 6.94587 12.8552 7.29491C11.6326 6.93696 10.3566 6.79711 9.08556 6.88176C8.80434 6.88897 8.53664 7.00386 8.33773 7.2027C8.13882 7.40154 8.02389 7.66915 8.01667 7.95026C8.01667 8.23365 8.12929 8.50543 8.32974 8.70581C8.5302 8.90619 8.80207 9.01877 9.08556 9.01877C10.7744 8.94754 12.4563 9.27453 13.9953 9.9733C13.5392 10.0445 13.0903 10.1371 12.6414 10.2511C12.3758 10.3331 12.1526 10.5154 12.0192 10.7592C11.8858 11.003 11.8526 11.2892 11.9268 11.557C12.001 11.8249 12.1766 12.0533 12.4164 12.1938C12.6563 12.3343 12.9414 12.3759 13.2114 12.3098C13.6319 12.2029 14.0594 12.1174 14.487 12.0462H14.715H14.9502L15.5986 11.9892C16.4229 11.9416 17.2496 11.9583 18.0713 12.0391C19.5233 12.9093 20.8716 13.9417 22.0903 15.1164C18.3065 15.4298 14.3017 15.5723 10.8029 14.0122ZM34.4038 57.2225C34.3475 57.4074 34.2334 57.5694 34.0782 57.6848C33.9231 57.8002 33.735 57.8628 33.5416 57.8636H17.7578C17.5644 57.8628 17.3763 57.8002 17.2212 57.6848C17.066 57.5694 16.9519 57.4074 16.8955 57.2225L12.449 42.1139H38.8504L34.4038 57.2225ZM42.8623 39.0793C42.8623 39.3174 42.7677 39.5457 42.5993 39.714C42.4309 39.8823 42.2025 39.9769 41.9644 39.9769H9.33496C9.09684 39.9769 8.86846 39.8823 8.70008 39.714C8.5317 39.5457 8.4371 39.3174 8.4371 39.0793V30.6666C8.4371 30.4286 8.5317 30.2003 8.70008 30.032C8.86846 29.8637 9.09684 29.7691 9.33496 29.7691H41.9644C42.2025 29.7691 42.4309 29.8637 42.5993 30.032C42.7677 30.2003 42.8623 30.4286 42.8623 30.6666V39.0793Z" fill="#382B51"/>
<path d="M12.4418 6.18321C12.438 6.16441 12.438 6.14502 12.4418 6.12622V6.19745V6.18321Z" fill="#382B51"/>
<path d="M15.1425 7.266V7.32299L15.1069 7.24463L15.1425 7.266Z" fill="#382B51"/>
</g>
<defs>
<clipPath id="clip0">
<rect width="45" height="60" fill="white"/>
</clipPath>
</defs>
</svg>
