<svg width="61" height="47" viewBox="0 0 61 47" fill="none" xmlns="http://www.w3.org/2000/svg">
<g clip-path="url(#clip0)">
<path d="M1.75567e-09 2.47316V46.9998H3.59077V42.7109H57.8114V46.9998H61V2.47316C61.0009 2.1487 60.9376 1.82724 60.8135 1.5272C60.6894 1.22717 60.507 0.954458 60.2769 0.724696C60.0467 0.494934 59.7732 0.312638 59.4722 0.188256C59.1711 0.0638727 58.8483 -0.000152525 58.5224 -0.000151162H2.50636C2.17824 -0.00298306 1.85281 0.0589004 1.54884 0.181927C1.24488 0.304954 0.968408 0.486688 0.735385 0.716638C0.502362 0.946589 0.317403 1.2202 0.191185 1.52168C0.0649662 1.82317 -1.23326e-05 2.14655 1.75567e-09 2.47316H1.75567e-09ZM57.8114 -0.000151162H3.59077H57.8114ZM57.8114 3.03787V19.3002H3.59077V3.03787H57.8114ZM3.59077 39.6657V22.3025H57.8114V39.6657H3.59077Z" fill="#382B51"/>
<path d="M41.0999 11.1514H22.5787C21.9203 11.1514 21.3866 11.6826 21.3866 12.338C21.3866 12.9933 21.9203 13.5246 22.5787 13.5246H41.0999C41.7583 13.5246 42.2921 12.9933 42.2921 12.338C42.2921 11.6826 41.7583 11.1514 41.0999 11.1514Z" fill="#382B51"/>
<path d="M41.0999 29.7939H22.5787C21.9203 29.7939 21.3866 30.3252 21.3866 30.9806C21.3866 31.6359 21.9203 32.1672 22.5787 32.1672H41.0999C41.7583 32.1672 42.2921 31.6359 42.2921 30.9806C42.2921 30.3252 41.7583 29.7939 41.0999 29.7939Z" fill="#382B51"/>
</g>
<defs>
<clipPath id="clip0">
<rect width="61" height="47" fill="white"/>
</clipPath>
</defs>
</svg>
