<svg width="39" height="54" viewBox="0 0 39 54" fill="none" xmlns="http://www.w3.org/2000/svg">
<g clip-path="url(#clip0)">
<path d="M38.2757 23.6767C37.9769 23.3207 37.602 23.0342 37.1778 22.8374C36.7536 22.6407 36.2905 22.5386 35.8216 22.5384H32.6069L36.245 6.19281C36.296 5.9614 36.3001 5.72234 36.257 5.48938C36.2139 5.25642 36.1245 5.03415 35.9938 4.83538C35.8661 4.63502 35.6986 4.4622 35.5012 4.32733C35.3039 4.19246 35.0809 4.09834 34.8457 4.05062L27.5767 2.4811C27.1069 2.38439 26.6173 2.47418 26.2143 2.73097C25.8112 2.98776 25.5273 3.39083 25.424 3.85266L23.2211 13.7505L23.6229 5.91001C23.6327 5.75292 23.5979 5.59626 23.5225 5.45753L20.81 0.473245C20.7395 0.341977 20.6371 0.229992 20.5118 0.147324C20.3866 0.064655 20.2425 0.0138847 20.0925 -0.00043907C19.9355 -0.00789594 19.7793 0.025405 19.6395 0.0961293C19.4997 0.166854 19.3813 0.272519 19.296 0.402546L16.0454 5.35149C15.9585 5.48487 15.9089 5.63854 15.9018 5.79689L15.2632 21.082L13.9214 3.83145C13.8755 3.25531 13.5998 2.72053 13.1547 2.3442C12.7095 1.96788 12.1311 1.78069 11.5462 1.8236L7.39145 2.12054C6.80344 2.16566 6.25769 2.43902 5.87419 2.8805C5.49068 3.32199 5.30083 3.89545 5.34637 4.47482L6.78152 22.5384H3.19366C2.7243 22.5376 2.26054 22.6389 1.83554 22.8352C1.41054 23.0314 1.03481 23.3178 0.735208 23.6738C0.435605 24.0298 0.219533 24.4466 0.102441 24.8944C-0.0146504 25.3422 -0.0298691 25.81 0.0578735 26.2643L5.02347 51.4615C5.1635 52.1759 5.55166 52.82 6.12126 53.2832C6.69086 53.7463 7.40637 53.9996 8.1449 53.9996H30.8919C31.6304 53.9996 32.346 53.7463 32.9156 53.2832C33.4852 52.82 33.8733 52.1759 34.0134 51.4615L38.9431 26.2643C39.0322 25.8112 39.0186 25.3443 38.9033 24.8969C38.7879 24.4496 38.5736 24.0329 38.2757 23.6767ZM27.1031 4.24151C27.1083 4.21969 27.1213 4.20046 27.1398 4.18744C27.1583 4.17443 27.181 4.16851 27.2036 4.17081L34.4798 5.71912L34.5444 5.82517L32.5136 14.9312L31.0785 14.6272L32.2409 9.38134C32.3566 8.86674 32.2608 8.32795 31.9743 7.8828C31.6879 7.43764 31.2342 7.12234 30.7125 7.00585L30.0811 6.87152C29.8219 6.81536 29.554 6.81015 29.2928 6.8562C29.0316 6.90225 28.7822 6.99864 28.5589 7.13986C28.3355 7.28107 28.1427 7.46433 27.9914 7.67912C27.8401 7.89391 27.7333 8.13602 27.6772 8.39155L26.5076 13.6374L25.0724 13.3263L27.1031 4.24151ZM30.5547 9.03491L28.3302 19.0318C28.3129 19.1015 28.2693 19.1622 28.2082 19.2014C28.1773 19.2229 28.1419 19.2372 28.1047 19.2434C28.0674 19.2495 28.0292 19.2472 27.9929 19.2368L27.3686 19.0883C27.3321 19.0811 27.2974 19.0667 27.2666 19.0461C27.2358 19.0254 27.2095 18.9989 27.1892 18.9681C27.1645 18.902 27.1645 18.8293 27.1892 18.7631L29.4137 8.76625C29.4256 8.70388 29.4595 8.64765 29.5094 8.60753C29.5593 8.56742 29.622 8.546 29.6864 8.54709H29.7438L30.3753 8.68141C30.4404 8.70671 30.4943 8.75406 30.5271 8.81497C30.56 8.87588 30.5698 8.94634 30.5547 9.0137V9.03491ZM26.1344 15.3342L25.4168 18.4096C25.3598 18.665 25.3546 18.9289 25.4013 19.1862C25.448 19.4436 25.5459 19.6893 25.6892 19.9094C25.8325 20.1294 26.0185 20.3194 26.2365 20.4685C26.4545 20.6175 26.7003 20.7227 26.9596 20.778L27.5911 20.9124C28.1133 21.024 28.6592 20.9276 29.1096 20.6442C29.56 20.3607 29.8782 19.9132 29.9949 19.3994L30.6766 16.324L32.1118 16.628L30.856 22.5384H23.0273L24.7064 15.0019L26.1344 15.3342ZM19.9633 2.62957L21.6352 5.76861L21.054 6.4756L20.5948 5.76861C20.5255 5.66678 20.4355 5.58025 20.3305 5.51453C20.2255 5.4488 20.1078 5.40532 19.9848 5.38684C19.8594 5.36192 19.7299 5.36486 19.6058 5.39543C19.4817 5.42601 19.366 5.48345 19.2673 5.56358L18.2914 6.36248L17.8823 5.82517L19.9633 2.62957ZM18.0043 8.48346C18.1235 8.49852 18.2446 8.49002 18.3604 8.45846C18.4762 8.4269 18.5845 8.3729 18.6789 8.29964L19.6332 7.55023L20.2216 8.4269C20.3005 8.54449 20.4068 8.64179 20.5316 8.71066C20.6565 8.77953 20.7962 8.81799 20.9392 8.82281H20.9894C21.1251 8.82735 21.26 8.80174 21.3842 8.74789C21.5084 8.69404 21.6188 8.61332 21.707 8.51174L20.9894 22.5738H16.9926L17.5881 8.31378C17.7098 8.40457 17.8531 8.463 18.0043 8.48346ZM13.6343 22.5384H8.53957L7.82199 13.3476L9.47241 13.2203L9.8599 18.1692C9.88828 18.3902 10.0016 18.592 10.1766 18.7331C10.3515 18.8741 10.5747 18.9436 10.8002 18.9273C11.0256 18.911 11.2361 18.8101 11.3883 18.6453C11.5404 18.4806 11.6226 18.2647 11.6179 18.042L11.2305 13.093L12.888 12.9729L13.6343 22.5384ZM7.52061 3.8668L11.6825 3.53452C11.7913 3.53551 11.896 3.57575 11.9767 3.64764C12.0691 3.7245 12.1282 3.83326 12.1418 3.95164L12.7015 11.2337L11.0511 11.3609L10.6708 6.46146C10.6542 6.23579 10.549 6.02537 10.3775 5.87489C10.206 5.72441 9.9817 5.6457 9.75226 5.65549C9.51923 5.67355 9.30298 5.78194 9.15096 5.9569C8.99895 6.13186 8.92358 6.35908 8.94141 6.58872L9.32889 11.5023L7.6713 11.6296L7.10442 4.34756C7.09643 4.22977 7.13548 4.11357 7.21324 4.02375C7.29099 3.93393 7.4013 3.87761 7.52061 3.8668ZM36.8262 25.8613L31.9037 51.0585C31.8572 51.2893 31.7311 51.4972 31.5466 51.6467C31.3621 51.7962 31.1308 51.8782 30.8919 51.8786H8.10902C7.87016 51.8782 7.63881 51.7962 7.45435 51.6467C7.26988 51.4972 7.14369 51.2893 7.09725 51.0585L2.15318 25.8613C2.12469 25.7153 2.12923 25.5649 2.16649 25.4208C2.20375 25.2767 2.27282 25.1425 2.36875 25.0277C2.46469 24.9129 2.58514 24.8204 2.72153 24.7568C2.85791 24.6931 3.00687 24.6599 3.15778 24.6594H35.8216C35.9727 24.6587 36.122 24.6914 36.2586 24.755C36.3952 24.8187 36.5156 24.9116 36.611 25.0271C36.7069 25.1419 36.776 25.2763 36.8132 25.4205C36.8504 25.5647 36.8549 25.7152 36.8262 25.8613Z" fill="#382B51"/>
</g>
<defs>
<clipPath id="clip0">
<rect width="39" height="54" fill="white"/>
</clipPath>
</defs>
</svg>
